<?xml version="1.0" encoding="UTF-8" standalone="no"?>
<svg
                           xmlns:dc="http://purl.org/dc/elements/1.1/"
                           xmlns:cc="http://creativecommons.org/ns#"
                           xmlns:rdf="http://www.w3.org/1999/02/22-rdf-syntax-ns#"
                           xmlns:svg="http://www.w3.org/2000/svg"
                           xmlns="http://www.w3.org/2000/svg"
                           xmlns:sodipodi="http://sodipodi.sourceforge.net/DTD/sodipodi-0.dtd"
                           xmlns:inkscape="http://www.inkscape.org/namespaces/inkscape"
                           version="1.0"
                           height="40"
                           viewBox="0 0 26 26"
                           id="Capa_1"
                           xml:space="preserve"
                           inkscape:version="0.48.1 ">
                        
                        <g
                           transform="translate(-0.03984384,0)"
                           id="g3133">
                            <rect
                           width="26"
                           height="26"
                           x="0"
                           y="0"
                           id="rect3135"
                           style="fill:none" />
                            <g
                           id="g3137">
                                <path
                           d="M 25.946,3.436 C 26.384,4.418 16.857,8.625 11.57,10.984 5.887,13.518 2.622,13.838 1.996,12.438 1.571,11.484 0.446,8.964 0.087,8.156 -0.274,7.346 1.05,7.087 1.576,7.49 1.909,7.748 2.974,8.536 3.709,9.076 4.131,9.389 4.456,9.614 4.908,9.411 5.361,9.209 20.173,2.602 20.173,2.602 23.117,1.29 25.508,2.453 25.946,3.436 z"
                           id="path3139"
                           style="fill:#F90"
                           inkscape:connector-curvature="0" />
                                <path
                           d="m 14.216,16.807 c -0.303,0.658 -0.903,1.349 -1.339,1.544 l -0.843,0.376 c -0.245,0.108 -0.425,-0.096 -0.24,-0.839 l 1.94,-10.33 C 14.038,6.9 14.637,6.207 15.074,6.013 l 4.411,-1.967 c 0.437,-0.194 0.543,0.181 0.239,0.841 l -5.508,11.92 z"
                           id="path3141"
                           style="fill:#F90"
                           inkscape:connector-curvature="0" />
                                <path
                           d="M 12.931,4.698 8.161,3.228 C 7.469,3.016 6.554,2.999 6.117,3.193 L 5.273,3.57 C 5.029,3.679 5.061,3.949 5.738,4.31 L 9.15,6.384 12.931,4.698 z"
                           id="path3143"
                           style="fill:#F90"
                           inkscape:connector-curvature="0" />
                            </g>
                            
                                <line
                           stroke-miterlimit="10"
                           x1="1"
                           y1="25"
                           x2="25"
                           y2="25"
                           id="line3145"
                           style="fill:none;stroke:#F90;stroke-width:2;stroke-linecap:round;stroke-linejoin:round;stroke-miterlimit:10;stroke-opacity:1" />
                        </g>
                        
                        
                        
                        
                        </svg>