<?xml version="1.0" encoding="UTF-8" standalone="no"?>
<svg
                           xmlns:dc="http://purl.org/dc/elements/1.1/"
                           xmlns:cc="http://creativecommons.org/ns#"
                           xmlns:rdf="http://www.w3.org/1999/02/22-rdf-syntax-ns#"
                           xmlns:svg="http://www.w3.org/2000/svg"
                           xmlns="http://www.w3.org/2000/svg"
                           xmlns:sodipodi="http://sodipodi.sourceforge.net/DTD/sodipodi-0.dtd"
                           xmlns:inkscape="http://www.inkscape.org/namespaces/inkscape"
                           version="1.0"
                           id="Capa_1"
                           x="0px"
                           y="0px"
                           height="40px"
                           viewBox="0 0 26 26"
                           enable-background="new 0 0 26 26"
                           xml:space="preserve"
                           inkscape:version="0.48.1 ">
                        
                        
                        <g
                           id="g3181">
                            <rect
                           width="26"
                           height="26"
                           id="rect3183"
                           x="0"
                           y="0"
                           style="fill:none" />
                            
                                <polygon
                           stroke-miterlimit="10"
                           points="9.384,12.5 16.985,12.5 17.308,13.519 12.5,20.5 5.5,20.5 "
                           id="polygon3185"
                           style="fill:none;stroke:#6C9;stroke-width:1.50000000000000000;stroke-linecap:round;stroke-linejoin:round;stroke-miterlimit:10;stroke-opacity:1" />
                            <g
                           id="g3187">
                                <path
                           d="M 9.226,16.718 8.39,18.439 c 0.082,0.113 0.148,0.236 0.217,0.36 H 10.51 C 10.24,18.008 9.809,17.292 9.226,16.718 z"
                           id="path3189"
                           inkscape:connector-curvature="0"
                           style="fill:#6C9" />
                                <path
                           d="m 8.606,22.2 c -0.605,1.102 -1.764,1.858 -3.106,1.858 -1.962,0 -3.559,-1.597 -3.559,-3.559 0,-1.903 1.507,-3.45 3.389,-3.541 L 6.157,15.253 C 5.939,15.226 5.725,15.187 5.5,15.187 c -2.935,0 -5.313,2.378 -5.313,5.313 0,2.935 2.378,5.313 5.313,5.313 2.336,0 4.298,-1.518 5.01,-3.612 H 8.606 z"
                           id="path3191"
                           inkscape:connector-curvature="0"
                           style="fill:#6C9" />
                            </g>
                            <path
                           stroke-miterlimit="10"
                           d="m 19.5,7.5 c -1.044,1.503 -3.48,1.225 -3.48,1.225 0,0 1.305,6.873 4.48,11.775"
                           id="path3193"
                           inkscape:connector-curvature="0"
                           style="fill:none;stroke:#6C9;stroke-width:1.50000000000000000;stroke-linecap:round;stroke-linejoin:round;stroke-miterlimit:10;stroke-opacity:1" />
                            <path
                           d="m 20.5,15.188 c -0.254,0 -0.497,0.04 -0.742,0.075 0.224,0.559 0.464,1.12 0.728,1.681 0.005,0 0.01,-0.002 0.015,-0.002 1.962,0 3.559,1.597 3.559,3.559 0,1.962 -1.597,3.559 -3.559,3.559 -1.962,0 -3.559,-1.597 -3.559,-3.559 0,-0.702 0.211,-1.353 0.563,-1.904 -0.29,-0.602 -0.555,-1.205 -0.801,-1.805 -0.936,0.958 -1.517,2.264 -1.517,3.709 0,2.935 2.378,5.313 5.313,5.313 2.935,0 5.313,-2.378 5.313,-5.313 0,-2.935 -2.378,-5.313 -5.313,-5.313 z"
                           id="path3195"
                           inkscape:connector-curvature="0"
                           style="fill:#6C9" />
                            
                                <line
                           stroke-miterlimit="10"
                           x1="8.8360004"
                           y1="11.094"
                           x2="12.5"
                           y2="20.5"
                           id="line3197"
                           style="fill:none;stroke:#6C9;stroke-width:1.50000000000000000;stroke-linecap:round;stroke-linejoin:round;stroke-miterlimit:10;stroke-opacity:1" />
                            <path
                           d="m 10.953,10.334 c 0,0.432 -0.495,0.528 -2.117,0.937 -1.634,0.411 -2.762,1.573 -2.762,-0.525 0,-0.559 0.16,-0.745 0.629,-0.745 0.287,0 3.313,0 3.313,0 C 10.478,10 10.953,10 10.953,10.334 z"
                           id="path3199"
                           inkscape:connector-curvature="0"
                           style="fill:#6C9" />
                        </g>
                        
                        </svg>