<?xml version="1.0" encoding="UTF-8" standalone="no"?>
<svg
                           xmlns:dc="http://purl.org/dc/elements/1.1/"
                           xmlns:cc="http://creativecommons.org/ns#"
                           xmlns:rdf="http://www.w3.org/1999/02/22-rdf-syntax-ns#"
                           xmlns:svg="http://www.w3.org/2000/svg"
                           xmlns="http://www.w3.org/2000/svg"
                           xmlns:sodipodi="http://sodipodi.sourceforge.net/DTD/sodipodi-0.dtd"
                           xmlns:inkscape="http://www.inkscape.org/namespaces/inkscape"
                           id="Capa_1"
                           enable-background="new 0 0 26 26"
                           xml:space="preserve"
                           viewBox="0 0 26 26"
                           version="1.0"
                           y="0px"
                           x="0px"
                           inkscape:version="0.48.1 "
                           height="40">
                           
                        <g
                           id="g3119">
                            <rect
                           id="rect3121"
                           width="26"
                           fill="none"
                           height="26" />
                            <g
                           id="g3123"
                           style="fill:#06F">
                                <circle
                           id="circle3125"
                           cy="23.5"
                           cx="19.5"
                           r="2.313"
                           d="m 21.813,23.5 c 0,1.277435 -1.035565,2.313 -2.313,2.313 -1.277435,0 -2.313,-1.035565 -2.313,-2.313 0,-1.277435 1.035565,-2.313 2.313,-2.313 1.277435,0 2.313,1.035565 2.313,2.313 z"
                           style="fill:#06F" />
                            </g>
                            <g
                           id="g3127"
                           style="fill:#06F">
                                <circle
                           id="circle3129"
                           cy="23.5"
                           cx="6.5"
                           r="2.313"
                           d="m 8.813,23.5 c 0,1.277435 -1.0355654,2.313 -2.313,2.313 -1.2774346,0 -2.313,-1.035565 -2.313,-2.313 0,-1.277435 1.0355654,-2.313 2.313,-2.313 1.2774346,0 2.313,1.035565 2.313,2.313 z"
                           style="fill:#06F" />
                            </g>
                            <path
                           id="path3131"
                           d="M21,16c-0.891,0-0.875,0.016-1.773-1.056-0.818-0.976-2.704-3.306-2.704-3.306-0.295-0.36-0.972-0.638-1.523-0.638h-7c-0.551,0-1.098,0.278-1.224,0.639,0,0-1.835,2.383-2.571,3.364s-0.721,0.997-1.628,0.997h-1.577c-0.551,0-1,0.449-1,1v5c0,0.551,0.449,1,1,1h1.994c0.245-1.723,1.716-3.057,3.506-3.057s3.261,1.334,3.506,3.057h5.988c0.245-1.723,1.716-3.057,3.506-3.057s3.261,1.334,3.506,3.057h1.994c0.551,0,1-0.449,1-1v-2c0-0.993-1.027-4-5-4zm-15.152,0l2.067-2.754s0.296-0.246,0.429-0.246h2.656v3h-5.152zm7.152,0v-3h1.649c0.301,0,0.666,0.177,0.748,0.271l2.225,2.729h-4.622z"
                           style="fill:#06F" />
                        </g>
                        
                        
                        
                        
                        
                        </svg>