<?xml version="1.0" encoding="UTF-8" standalone="no"?>
<svg
                           xmlns:dc="http://purl.org/dc/elements/1.1/"
                           xmlns:cc="http://creativecommons.org/ns#"
                           xmlns:rdf="http://www.w3.org/1999/02/22-rdf-syntax-ns#"
                           xmlns:svg="http://www.w3.org/2000/svg"
                           xmlns="http://www.w3.org/2000/svg"
                           xmlns:sodipodi="http://sodipodi.sourceforge.net/DTD/sodipodi-0.dtd"
                           xmlns:inkscape="http://www.inkscape.org/namespaces/inkscape"
                           version="1.0"
                           height="40"
                           viewBox="0 0 26 26"
                           id="Capa_1"
                           xml:space="preserve"
                           inkscape:version="0.48.1 ">
                        
                        <g
                           transform="translate(-0.01072826,-0.01010962)"
                           id="g3163">
                            <rect
                           width="26"
                           height="26"
                           x="0"
                           y="0"
                           id="rect3165"
                           style="fill:none" />
                            <path
                           d="m 10,23 c 0,0 6.532,0 11,0 3.983,0 4,-1 4,-1"
                           id="path3167"
                           style="fill:none;stroke:#F36;stroke-width:1.89999998000000000;stroke-linecap:round;stroke-linejoin:round;stroke-miterlimit:10;stroke-opacity:1"
                           inkscape:connector-curvature="0" />
                            <path
                           d="M 14.021,13 H 2.492 c -0.5,0 -0.611,0.844 -0.055,0.938 0.202,0.034 11.583,2.817 11.583,2.817 0.399,0 0.723,-2.686 0.723,-3.066 C 14.743,13.309 14.42,13 14.021,13 z"
                           id="path3169"
                           style="fill:#F36"
                           inkscape:connector-curvature="0" />
                            <g
                           id="g3171">
                                <path
                           d="M 25,9.95 15,9.39 5,9.95 C 4.476,9.95 4.05,9.524 4.05,9 4.05,8.476 4.476,8.05 5,8.05 L 15,8.61 25,8.05 c 0.524,0 0.95,0.426 0.95,0.95 0,0.524 -0.426,0.95 -0.95,0.95 z"
                           id="path3173"
                           style="fill:#F36"
                           inkscape:connector-curvature="0" />
                            </g>
                            
                                <line
                           stroke-miterlimit="10"
                           x1="15"
                           y1="8.5"
                           x2="15"
                           y2="13.5"
                           id="line3175"
                           style="fill:#F36;stroke:#F36;stroke-width:1.89999998000000000;stroke-linecap:round;stroke-linejoin:round;stroke-miterlimit:10;stroke-opacity:1" />
                            <path
                           d="M 3.088,14.575 C 2.91,14.674 2.717,14.744 2.5,14.744 c -0.686,0 -1.244,-0.559 -1.244,-1.244 0,-0.685 0.559,-1.244 1.244,-1.244 0.332,0 0.632,0.136 0.854,0.349 h 1.277 c -0.35,-0.832 -1.172,-1.417 -2.132,-1.417 -1.277,0 -2.313,1.035 -2.313,2.313 0,1.278 1.035,2.313 2.313,2.313 0.745,0 1.4,-0.358 1.823,-0.905 L 3.088,14.575 z"
                           id="path3177"
                           style="fill:#F36"
                           inkscape:connector-curvature="0" />
                            <path
                           d="m 16.406,11.069 c -3.796,0 -5.324,2.857 -5.324,6.38 0,3.525 3.077,3.506 6.873,3.506 3.796,0 6.873,0.02 6.873,-3.506 0,-3.522 -4.625,-6.38 -8.422,-6.38 z m 3.013,6.886 c -1.806,0 -2.337,-0.825 -2.337,-1.891 0,-1.613 0.211,-2.995 1.044,-2.995 1.78,0 4.832,1.655 4.832,3.743 0,0.782 -0.786,1.143 -3.539,1.143 z"
                           id="path3179"
                           style="fill:#F36"
                           inkscape:connector-curvature="0" />
                        </g>
                        
                        
                        </svg>