<?xml version="1.0" encoding="UTF-8" standalone="no"?>
<svg
                           xmlns:dc="http://purl.org/dc/elements/1.1/"
                           xmlns:cc="http://creativecommons.org/ns#"
                           xmlns:rdf="http://www.w3.org/1999/02/22-rdf-syntax-ns#"
                           xmlns:svg="http://www.w3.org/2000/svg"
                           xmlns="http://www.w3.org/2000/svg"
                           xmlns:sodipodi="http://sodipodi.sourceforge.net/DTD/sodipodi-0.dtd"
                           xmlns:inkscape="http://www.inkscape.org/namespaces/inkscape"
                           version="1.0"
                           height="40"
                           viewBox="0 0 26 26"
                           id="Capa_1"
                           xml:space="preserve"
                           inkscape:version="0.48.1 ">
                        
                        <g
                           transform="translate(-0.01943575,0.016326)"
                           id="g3201">
                            <rect
                           width="26"
                           height="26"
                           x="0"
                           y="0"
                           id="rect3203"
                           style="fill:none" />
                            <g
                           id="g3205"
                           style="fill:#9C0">
                                <path
                           d="m 22,19.787 c 1.22,0 2.213,0.993 2.213,2.213 0,1.22 -0.993,2.213 -2.213,2.213 -1.22,0 -2.213,-0.993 -2.213,-2.213 0,-1.22 0.993,-2.213 2.213,-2.213 m 0,-1.599 c -2.105,0 -3.813,1.707 -3.813,3.813 0,2.106 1.707,3.813 3.813,3.813 2.106,0 3.813,-1.707 3.813,-3.813 0,-2.106 -1.708,-3.813 -3.813,-3.813 l 0,0 z"
                           id="path3207"
                           style="fill:#9C0"
                           inkscape:connector-curvature="0" />
                            </g>
                            <g
                           id="g3209"
                           style="fill:#9C0">
                                <path
                           d="m 4.5,18.997 c 1.38,0 2.503,1.123 2.503,2.503 0,1.38 -1.123,2.503 -2.503,2.503 -1.38,0 -2.503,-1.123 -2.503,-2.503 0,-1.38 1.123,-2.503 2.503,-2.503 m 0,-1.809 c -2.382,0 -4.313,1.931 -4.313,4.313 0,2.382 1.931,4.313 4.313,4.313 2.382,0 4.313,-1.931 4.313,-4.313 0,-2.382 -1.931,-4.313 -4.313,-4.313 l 0,0 z"
                           id="path3211"
                           style="fill:#9C0"
                           inkscape:connector-curvature="0" />
                            </g>
                            <path
                           d="m 13.5,11.5 c 1.135,-0.899 2.52,-1.379 2.52,-1.379 0,0 1.757,7.379 5.98,11.879"
                           id="path3213"
                           style="fill:none;stroke:#9C0;stroke-width:1.50000000000000000;stroke-linecap:round;stroke-linejoin:round;stroke-miterlimit:10;stroke-opacity:1"
                           inkscape:connector-curvature="0" />
                            <path
                           d="m 17.58,21.895 c 0.795,0 0.071,-1.399 2.813,-2.66 1.529,-0.703 3.027,-0.306 4.372,-0.306 0.307,0 -0.278,-1.81 -3.368,-1.81 -1.921,0 -3.267,1.351 -3.878,2.849 -0.278,0.679 -0.377,1.927 0.061,1.927 z"
                           id="path3215"
                           style="fill:#9C0"
                           inkscape:connector-curvature="0" />
                            <path
                           d="m 16.689,11 h 1.513 c 0,0 0.735,0.016 1.001,0.766 0.165,0.466 0.594,1.844 0.625,2.391 0.062,1.083 -1.688,0.781 -1.688,0.781 0,0 -2.182,3.116 -1.937,7.014 0.051,1.127 -4.9,1.64 -6.048,0.07 -0.141,-1.826 -0.658,-3.578 -1.922,-4.49 -1.14,-0.822 -2.531,-1.563 -6.875,-1.563 -1.134,0 -1.192,-0.862 -1.192,-0.862 0,0 0.392,-1.107 3.818,-1.107 2.367,0 1.943,0.406 2.513,1.437 0.376,0.681 1.171,0.614 3.447,0.614 0.941,0 -0.169,-3.005 6.091,-3.005 0.781,0 0.716,-1.481 0.654,-2.046 z"
                           id="path3217"
                           style="fill:#9C0"
                           inkscape:connector-curvature="0" />
                            
                                <line
                           stroke-miterlimit="10"
                           x1="4.5"
                           y1="21.5"
                           x2="14.018"
                           y2="21.5"
                           id="line3219"
                           style="fill:none;stroke:#9C0;stroke-width:1.60000002000000000;stroke-linecap:round;stroke-linejoin:round;stroke-miterlimit:10;stroke-opacity:1" />
                            
                                <line
                           stroke-miterlimit="10"
                           x1="11.5"
                           y1="17.5"
                           x2="4.5"
                           y2="21.5"
                           id="line3221"
                           style="fill:none;stroke:#9C0;stroke-width:1.60000002000000000;stroke-linecap:round;stroke-linejoin:round;stroke-miterlimit:10;stroke-opacity:1" />
                        </g>
                        </svg>