<?xml version="1.0" encoding="UTF-8" standalone="no"?>

<svg
                           xmlns:dc="http://purl.org/dc/elements/1.1/"
                           xmlns:cc="http://creativecommons.org/ns#"
                           xmlns:rdf="http://www.w3.org/1999/02/22-rdf-syntax-ns#"
                           xmlns:svg="http://www.w3.org/2000/svg"
                           xmlns="http://www.w3.org/2000/svg"
                           xmlns:sodipodi="http://sodipodi.sourceforge.net/DTD/sodipodi-0.dtd"
                           xmlns:inkscape="http://www.inkscape.org/namespaces/inkscape"
                           version="1.0"
                           height="40"
                           viewBox="0 0 26 26"
                           id="Capa_1"
                           xml:space="preserve"
                           inkscape:version="0.48.1 ">
                        
                        <g
                           transform="translate(-0.00490066,0.00238416)"
                           id="g3147">
                            
                                <line
                           stroke-miterlimit="10"
                           x1="10.5"
                           y1="3.5"
                           x2="9.7749996"
                           y2="1.3279999"
                           id="line3149"
                           style="fill:none;stroke:#93C;stroke-linecap:round;stroke-linejoin:round;stroke-miterlimit:10;stroke-opacity:1" />
                            
                                <line
                           stroke-miterlimit="10"
                           x1="15.5"
                           y1="3.5"
                           x2="16.225"
                           y2="1.326"
                           id="line3151"
                           style="fill:none;stroke:#93C;stroke-linecap:round;stroke-linejoin:round;stroke-miterlimit:10;stroke-opacity:1" />
                            <rect
                           width="26"
                           height="26"
                           x="0"
                           y="0"
                           id="rect3153"
                           style="fill:none" />
                            
                                <line
                           stroke-miterlimit="10"
                           x1="5.5"
                           y1="25.5"
                           x2="8.5"
                           y2="22.5"
                           id="line3155"
                           style="fill:none;stroke:#93C;stroke-width:2;stroke-linecap:round;stroke-linejoin:round;stroke-miterlimit:10;stroke-opacity:1" />
                            
                                <line
                           stroke-miterlimit="10"
                           x1="20.5"
                           y1="25.5"
                           x2="17.5"
                           y2="22.5"
                           id="line3157"
                           style="fill:none;stroke:#93C;stroke-width:2;stroke-linecap:round;stroke-linejoin:round;stroke-miterlimit:10;stroke-opacity:1" />
                            <path
                           d="M 13,5 C 8,5 5,8.344 5,10 v 10 c 0,1.656 1.344,3 3,3 h 10 c 1.656,0 3,-1.344 3,-3 V 10 C 21,8.344 18,5 13,5 z M 7,10 C 7,9.448 9.464,9 13.5,9 17.536,9 19,9.448 19,10 v 4 c 0,0.552 -0.448,1 -1,1 H 8 C 7.448,15 7,14.552 7,14 v -4 z m 3,-3 c 0,-0.552 1.448,-1 2,-1 h 2 c 0.552,0 2,0.448 2,1 l 0,0 c 0,0.552 -0.448,1 -1,1 H 11 C 10.448,8 10,7.552 10,7 l 0,0 z M 9.5,21.125 c -0.897,0 -1.625,-0.728 -1.625,-1.625 0,-0.897 0.728,-1.625 1.625,-1.625 0.897,0 1.625,0.728 1.625,1.625 0,0.897 -0.728,1.625 -1.625,1.625 z m 7,0 c -0.897,0 -1.625,-0.728 -1.625,-1.625 0,-0.897 0.728,-1.625 1.625,-1.625 0.897,0 1.625,0.728 1.625,1.625 0,0.897 -0.728,1.625 -1.625,1.625 z"
                           id="path3159"
                           style="fill:#93C"
                           inkscape:connector-curvature="0" />
                            <path
                           d="m 8.5,2 c 0,0 0.032,-1 4.5,-1 4.468,0 4.5,1 4.5,1"
                           id="path3161"
                           style="fill:none;stroke:#93C;stroke-width:1.79999994999999990;stroke-linecap:round;stroke-linejoin:round;stroke-miterlimit:10;stroke-opacity:1"
                           inkscape:connector-curvature="0" />
                        </g>
                        
                        
                        
                        </svg>